<svg xmlns="http://www.w3.org/2000/svg" viewBox="0 0 1024 576">
  <!-- Left arm -->
  <path fill="var(--logo-color, #d648ff)" d="
    M346.041748,422.922699 
    C322.708313,393.198059 309.159576,359.697449 305.022644,322.664215 
    C298.759186,266.594391 311.788513,215.572815 347.037170,170.871246 
    C352.093262,164.459229 357.619415,158.423843 363.710052,152.967758 
    C370.914154,146.514221 379.303009,144.766388 388.338257,148.131607 
    C396.846741,151.300613 401.098785,158.014023 401.750397,166.911102 
    C402.238983,173.581909 399.885620,179.231628 394.992584,183.922806 
    C372.833740,205.167603 358.085815,230.818192 352.097565,260.845551 
    C341.565338,313.658234 351.693634,361.726624 387.424438,403.231354 
    C389.588562,405.745178 392.059906,408.015747 394.532990,410.238495 
    C403.354492,418.166962 404.545776,431.106293 397.235626,440.434082 
    C390.113525,449.521912 376.062805,451.484741 366.674072,444.396606 
    C358.776611,438.434387 352.615173,430.704498 346.041748,422.922699z"/>
  <!-- Right arm -->
  <path fill="var(--logo-color, #d648ff)" d="
    M687.602417,266.610687 
    C695.512207,333.536835 678.816528,392.049713 631.279297,440.566559 
    C624.636658,447.346161 616.796570,449.945374 607.641174,447.767670 
    C599.484802,445.827576 594.194153,440.404877 592.164429,432.361450 
    C590.102478,424.190186 592.081299,416.847290 598.351746,410.912720 
    C616.543457,393.695465 629.670044,373.033051 636.705200,349.185516 
    C655.060791,286.965057 644.675049,231.038818 598.055176,183.818451 
    C589.773743,175.430313 589.194336,162.097702 596.952881,153.552994 
    C605.052979,144.632141 619.511047,144.006210 628.954346,152.466797 
    C637.540527,160.159409 645.020691,168.897675 651.807312,178.215240 
    C671.004944,204.572327 682.744446,233.960724 687.602417,266.610687z"/>
  <!-- Center dot: always black (light) / white (dark) via CSS -->
  <path fill="var(--logo-dot, #000000)" d="
    M443.975281,273.232117 
    C460.702911,238.554428 502.951721,230.509201 530.753784,250.662079 
    C551.010193,265.345367 559.520996,291.476990 551.615173,315.064972 
    C543.587219,339.017700 521.037720,355.008179 496.010895,354.495575 
    C468.975128,353.941772 446.428101,335.980225 440.483582,309.778412 
    C437.691223,297.470428 438.886414,285.294739 443.975281,273.232117z"/>
</svg>
